<svg width="721" height="923" viewBox="0 0 721 923" fill="none" xmlns="http://www.w3.org/2000/svg">
<g opacity="0.9">
<path d="M345.516 52.264C345.516 52.264 482.144 75.019 460.106 86.0379C449.25 91.4659 351.88 123.442 344.31 145.745C336.74 168.048 336.802 183.732 344.31 206.056C352.423 230.18 408.716 239.967 443.822 269.985C487.164 307.044 519.373 346.58 537.304 382.163C561.699 430.575 571.681 448.504 571.681 516.655C571.681 534.161 575.801 547.121 589.774 557.667C621.739 581.791 783.881 627.627 791.211 651.148C794.716 662.393 800.251 669.312 797.243 680.7C791.757 701.463 767.061 696.514 745.979 700.603C687.117 712.018 652.666 621.362 600.63 651.148C587.726 658.534 585.491 670.367 571.681 675.875C551.194 684.047 536.399 661.923 515.592 669.241C487.613 679.081 484.441 704.698 472.771 731.964C467.789 743.604 469.432 752.115 462.519 762.722C456.881 771.373 443.822 781.419 443.822 781.419C443.822 781.419 423.761 820.491 420.301 847.76C418.256 863.882 420.301 889.375 420.301 889.375C420.301 889.375 438.436 879.549 443.822 885.153C449.208 890.756 448.486 898.837 443.822 905.055C437.604 913.346 417.286 905.055 417.286 905.055C417.286 905.055 412.324 917.117 405.827 917.117C401.002 917.117 400.988 902.818 393.162 900.231C389.543 899.034 380.075 914.904 369.037 920.133C351.775 928.31 320.186 922.545 320.186 922.545C320.186 922.545 306.933 908.641 311.139 900.231C313.552 895.406 345.844 905.191 364.212 895.406C378.471 887.81 393.162 865.853 393.162 865.853C393.162 865.853 439.014 804.43 420.301 770.563C417.286 765.105 335.454 741.401 297.268 770.563C268.634 792.43 257.463 853.791 257.463 853.791C257.463 853.791 251.814 874.286 257.463 885.153C261.381 892.691 273.143 900.231 273.143 900.231C273.143 900.231 263.756 918.548 253.844 917.117C249.623 916.508 247.26 903.863 239.37 900.231C231.48 896.598 227.809 930.448 221.88 950.288C219.36 958.72 218.943 972 215.848 972C210.421 972 198.344 966.992 200.168 959.335C203.184 946.67 206.802 922.545 206.802 922.545C206.802 922.545 176.044 946.67 162.172 950.288C156.279 951.826 147.003 952.76 147.003 946.67C147.003 937.02 207.985 921.055 223.598 888.168C251.944 828.461 283.396 762.722 283.396 762.722C242.149 757.943 195.765 732.604 162.775 707.84C126.147 680.345 78.9435 627.627 78.9435 627.627C78.9435 627.627 35.3246 576.418 19.8391 537.161C5.49911 500.808 2.26341 477.918 1.14285 438.855C-0.177295 392.834 7.77738 347.183 19.8391 322.455C25.6528 310.537 1.14279 307.37 1.14285 294.109C1.14325 209.675 19.8391 220.348 19.8391 179.519C19.8392 157.807 25.555 119.823 53.6131 86.0379C77.0893 57.7698 94.3731 47.0792 127.192 30.5522C157.133 15.4745 230.323 1 230.323 1C230.323 1 281.587 9.00402 296.665 15.4745C318.612 24.893 345.516 52.264 345.516 52.264Z" fill="#212529" stroke="black"/>
<circle cx="253.241" cy="110.765" r="24.7273" fill="black" fill-opacity="0.72"/>
</g>
</svg>
